<svg xmlns="http://www.w3.org/2000/svg" viewBox="0 0 24 24"><defs><style>.cls-1{fill:#b3b3b3;}.cls-2{fill:#333;}</style></defs><title>Artboard 28</title><g id="Icon_28"><polygon class="cls-1" points="11 14 11 12 8 12 8 14 8 14.5 11 14.5 11 14"/><rect class="cls-1" x="8" y="15.5" width="3" height="0.5"/><path class="cls-2" d="M23,4a1,1,0,0,0-.29-.71l-2-2a1,1,0,0,0-1.15-.19L16,2.88l-.55-1.11-.89.45,2,4,.89-.45-.55-1.11L19.8,3.22,21,4.41V12H14v2h6.67l-1.43,5H4.75L3.33,14H5V12H2a1,1,0,0,0-1,1.27L3,20l-.67,2H4.39l.33-1H19.28l.33,1h2.11L21,20,23,13.27A1,1,0,0,0,23,13h0Z"/><path class="cls-2" d="M7,18h5a1,1,0,0,0,1-1V11a1,1,0,0,0-1-1H7a1,1,0,0,0-1,1v6A1,1,0,0,0,7,18Zm1-4V12h3v2.5H8Zm0,1.5h3V16H8Z"/></g></svg>