<svg xmlns="http://www.w3.org/2000/svg" viewBox="0 0 24 24"><defs><style>.cls-1{fill:#b3b3b3;}.cls-2{fill:#333;}</style></defs><title>Artboard 5</title><g id="Icon_5"><polygon class="cls-1" points="12 17 5 17 3 17 3 19 21 19 21 17 19 17 12 17"/><path class="cls-2" d="M6,9H18v2h2V8a1,1,0,0,0-1-1H5A1,1,0,0,0,4,8v3H6Z"/><path class="cls-2" d="M21,13v2H20V13a1,1,0,0,0-1-1H5a1,1,0,0,0-1,1v2H3V13H1v9H3V21H21v1h2V13Zm-8,1h5v1H13ZM6,14h5v1H6Zm15,5H3V17H21Z"/><polyline class="cls-2" points="10 10 10 11 14 11 14 10"/></g></svg>